<svg data-v-d3f97b9e="" xmlns="http://www.w3.org/2000/svg" viewBox="0 0 448 99"><!----><!----><!----><g data-v-d3f97b9e="" id="8ddc908d-617b-48cc-b0c5-21c75bc3e535" fill="black" transform="matrix(4.562737941741943,0,0,4.562737941741943,119.47988891601562,3.207028865814209)"><path d="M5.63 4.05L5.63 10.11C5.63 11.62 4.77 12.50 3.49 12.50C2.56 12.50 1.69 11.98 1.27 10.92L0.20 11.72C0.73 13.06 2.06 13.82 3.46 13.82C5.63 13.82 7.06 12.24 7.06 10.11L7.06 4.05ZM9.07 6.33L9.07 11.21C9.07 13.08 10.11 13.92 11.61 13.92C12.60 13.92 13.38 13.54 13.94 12.81L13.94 13.73L15.20 13.73L15.20 6.33L13.87 6.33L13.87 11.34C13.45 12.33 12.81 12.66 12.03 12.66C11.09 12.66 10.40 12.17 10.40 10.99L10.40 6.33ZM17.33 6.33L17.33 16.65L18.66 16.20L18.66 12.88C19.14 13.48 19.85 13.92 20.82 13.92C22.88 13.92 23.65 11.94 23.65 10.02C23.65 8.11 22.88 6.15 20.82 6.15C19.81 6.15 19.07 6.62 18.59 7.27L18.59 6.33ZM20.50 7.36C21.91 7.36 22.37 8.62 22.37 10.02C22.37 11.42 21.91 12.68 20.51 12.68C19.61 12.68 19.04 12.18 18.66 11.49L18.66 8.58C19.04 7.87 19.61 7.36 20.50 7.36ZM25.51 6.33L25.51 13.73L26.84 13.73L26.84 6.33ZM26.17 3.50C25.72 3.50 25.41 3.82 25.41 4.30C25.41 4.76 25.72 5.10 26.17 5.10C26.61 5.10 26.94 4.76 26.94 4.30C26.94 3.82 26.61 3.50 26.17 3.50ZM28.21 6.33L28.21 7.42L29.05 7.42L29.05 11.91C29.05 13.19 29.81 13.80 30.72 13.80C31.25 13.80 31.82 13.59 32.09 13.29L32.31 12.07C31.98 12.39 31.64 12.52 31.25 12.52C30.69 12.52 30.38 12.21 30.38 11.62L30.38 7.42L32.27 7.42L32.27 6.33L30.38 6.33L30.38 3.89L29.05 4.33L29.05 6.33ZM39.59 10.49C39.61 10.33 39.62 10.18 39.62 10.00C39.62 7.52 38.30 6.15 36.48 6.15C34.66 6.15 33.36 7.52 33.36 10.00C33.36 12.60 34.80 13.92 36.57 13.92C37.90 13.92 38.72 13.17 39.13 12.61L38.25 11.84C37.91 12.33 37.35 12.71 36.62 12.71C35.64 12.71 34.76 12.03 34.61 10.49ZM36.50 7.35C37.49 7.35 38.22 8.08 38.37 9.49L34.61 9.49C34.75 8.12 35.48 7.35 36.50 7.35ZM46.17 6.59C45.92 6.36 45.53 6.15 44.87 6.15C43.97 6.15 43.26 6.52 42.74 7.22L42.74 6.33L41.48 6.33L41.48 13.73L42.81 13.73L42.81 8.74C43.23 7.70 43.86 7.41 44.62 7.41C45.07 7.41 45.42 7.50 45.68 7.77ZM51.51 3.86C49.06 3.86 47.31 5.60 47.31 8.90C47.31 12.19 49.06 13.92 51.51 13.92C53.98 13.92 55.73 12.19 55.73 8.90C55.73 5.60 53.98 3.86 51.51 3.86ZM51.51 5.19C53.17 5.19 54.32 6.45 54.32 8.90C54.32 11.34 53.17 12.60 51.51 12.60C49.85 12.60 48.73 11.34 48.73 8.90C48.73 6.45 49.85 5.19 51.51 5.19ZM57.69 6.33L57.69 13.73L59.02 13.73L59.02 8.71C59.43 7.73 60.09 7.41 60.87 7.41C61.85 7.41 62.50 7.90 62.50 9.18L62.50 13.73L63.83 13.73L63.83 9.04C63.83 6.97 62.79 6.15 61.29 6.15C60.28 6.15 59.50 6.52 58.95 7.24L58.95 6.33ZM71.86 10.49C71.88 10.33 71.89 10.18 71.89 10.00C71.89 7.52 70.57 6.15 68.75 6.15C66.93 6.15 65.63 7.52 65.63 10.00C65.63 12.60 67.07 13.92 68.84 13.92C70.17 13.92 70.99 13.17 71.40 12.61L70.52 11.84C70.18 12.33 69.62 12.71 68.89 12.71C67.91 12.71 67.03 12.03 66.88 10.49ZM68.77 7.35C69.76 7.35 70.49 8.08 70.64 9.49L66.88 9.49C67.02 8.12 67.75 7.35 68.77 7.35Z"></path></g><!----><g data-v-d3f97b9e="" id="c3096164-b531-4f93-b04b-d152c5eeebda" transform="matrix(1.045377254486084,0,0,1.045377254486084,0.8045138716697693,-0.21999548375606537)" stroke="none" fill="black"><path d="M73.588 48.88a2.008 2.008 0 1 1-4.016.002 2.008 2.008 0 0 1 4.016-.002z"></path><path d="M91.428 65.684c-2.844-4.664-5.756-10.848-8.584-16.828-4.636-9.819-9.012-19.096-13.691-23.768-1.772-1.764-4.168-3.184-6.984-4.164 1.557-7.068 1.137-15.516-2.736-19.384a2.002 2.002 0 0 0-2.64-.164c-2.819 2.2-11.288 9.632-9.848 18.596-6.52 1.184-12.572 4.324-17.232 8.976C22.788 35.864.16 60.928-.016 93.036a1.96 1.96 0 0 0 .584 1.416c.376.384.888.588 1.416.588h36.312c.548 0 1.072-.224 1.448-.62.916-.96 2.268-2.432 3.836-4.156 4.192-4.58 12-13.1 14.152-14.304.459-.256.888-.384 1.304-.384 2.052 0 4.552 2.988 7.196 6.152 1.315 1.584 2.703 3.231 4.207 4.76 1.696 1.712 6.849 6.924 12.893 6.924 2.804 0 5.416-1.096 7.752-3.268 6.464-5.988 6.576-14.228.344-24.46zM71.58 42.872c3.32 0 6.016 2.696 6.016 6.008 0 3.315-2.695 6.009-6.016 6.009s-6.016-2.693-6.016-6.009a6.015 6.015 0 0 1 6.016-6.008zM40.636 87.58l-.544.592c-2.572-2.023-8.656-3.068-18.196-3.068-2.38 0-4.392-1.684-6.524-3.463C12.82 79.508 10 77.152 6.04 77.1c.328-1.332.68-2.644 1.072-3.936 4.8.4 8.244 3.252 10.828 5.412 1.488 1.248 3.028 2.531 3.956 2.531 6.948 0 16.472.477 20.888 4.137a348.02 348.02 0 0 0-2.148 2.336zm7.408-7.98c-3.7-10.728-18.628-14.531-22.136-14.531-2.836 0-5.172-2.336-7.436-4.588-1.528-1.524-3.428-3.424-4.608-3.424-.016 0-.032-.009-.048-.009a101.871 101.871 0 0 1 2.032-3.596c1.984.752 3.74 2.491 5.452 4.2 1.528 1.527 3.428 3.42 4.608 3.42 4.22 0 19.812 3.764 25.184 15.428-.94.928-1.951 1.96-3.048 3.1zm11.972-7.892c-.324-.052-.644-.112-.976-.112-.892 0-1.756.248-2.616.62-.088-.112-.188-.224-.244-.36-.1-.248-.156-.5-.156-.76 0-7.084-7.52-14.539-14.952-18.252-5.672-2.828-7.812-7.5-9.536-11.252-.96-2.104-1.792-3.916-3.032-5.152-.06-.06-.084-.136-.132-.2.952-1.076 1.84-2.052 2.612-2.86.116.08.244.128.344.228 1.752 1.752 2.768 3.972 3.844 6.316 1.608 3.508 3.276 7.136 7.684 9.336 6.22 3.104 12.785 8.74 15.667 15.217.869-4.257 1.513-11.148 1.513-21.433 0-2.332 1.024-5.4 2.104-8.648.939-2.804 1.911-5.704 1.911-7.384 0-.252.06-.484.144-.704.797.492 1.533 1.024 2.133 1.62.464.464.928 1.016 1.408 1.6-.389 1.856-1.064 3.94-1.797 6.132-.932 2.804-1.907 5.704-1.907 7.38.008 15.388-1.36 24.96-4.016 28.668zm7.228 5.056c-.916-1.039-1.836-2.008-2.784-2.812.24-.336.552-.616.972-.757 5.813-1.928 7.264-5.959 8.805-10.228 1.279-3.552 2.636-7.196 6.436-9.376.584 1.236 1.172 2.444 1.76 3.664-2.344 1.5-3.359 4.072-4.439 7.072-1.586 4.394-3.586 9.797-10.75 12.437zm18.544 3.448c-2.009 3.004-4.084 6.108-6.22 8.252-1.217-.575-2.344-1.319-3.32-2.092.092-.244.244-.472.436-.668 1.868-1.864 3.853-4.836 5.772-7.716 2.024-3.032 4.12-6.172 6.265-8.32.079-.076.176-.107.256-.172.752 1.396 1.344 2.68 1.783 3.884-1.615 1.849-3.317 4.352-4.972 6.832z"></path></g><!----></svg>