<svg data-v-d3f97b9e="" xmlns="http://www.w3.org/2000/svg" viewBox="0 0 61.24401099858155 60"><!----><!----><!----><!----><g data-v-d3f97b9e="" id="3c43b486-a7ee-422c-8e4f-5cc2cf42169d" transform="matrix(0.6377282738685608,0,0,0.6377282738685608,0.010271747596561909,-0.6096969842910767)" stroke="none" fill="white"><path d="M73.588 48.88a2.008 2.008 0 1 1-4.016.002 2.008 2.008 0 0 1 4.016-.002z"></path><path d="M91.428 65.684c-2.844-4.664-5.756-10.848-8.584-16.828-4.636-9.819-9.012-19.096-13.691-23.768-1.772-1.764-4.168-3.184-6.984-4.164 1.557-7.068 1.137-15.516-2.736-19.384a2.002 2.002 0 0 0-2.64-.164c-2.819 2.2-11.288 9.632-9.848 18.596-6.52 1.184-12.572 4.324-17.232 8.976C22.788 35.864.16 60.928-.016 93.036a1.96 1.96 0 0 0 .584 1.416c.376.384.888.588 1.416.588h36.312c.548 0 1.072-.224 1.448-.62.916-.96 2.268-2.432 3.836-4.156 4.192-4.58 12-13.1 14.152-14.304.459-.256.888-.384 1.304-.384 2.052 0 4.552 2.988 7.196 6.152 1.315 1.584 2.703 3.231 4.207 4.76 1.696 1.712 6.849 6.924 12.893 6.924 2.804 0 5.416-1.096 7.752-3.268 6.464-5.988 6.576-14.228.344-24.46zM71.58 42.872c3.32 0 6.016 2.696 6.016 6.008 0 3.315-2.695 6.009-6.016 6.009s-6.016-2.693-6.016-6.009a6.015 6.015 0 0 1 6.016-6.008zM40.636 87.58l-.544.592c-2.572-2.023-8.656-3.068-18.196-3.068-2.38 0-4.392-1.684-6.524-3.463C12.82 79.508 10 77.152 6.04 77.1c.328-1.332.68-2.644 1.072-3.936 4.8.4 8.244 3.252 10.828 5.412 1.488 1.248 3.028 2.531 3.956 2.531 6.948 0 16.472.477 20.888 4.137a348.02 348.02 0 0 0-2.148 2.336zm7.408-7.98c-3.7-10.728-18.628-14.531-22.136-14.531-2.836 0-5.172-2.336-7.436-4.588-1.528-1.524-3.428-3.424-4.608-3.424-.016 0-.032-.009-.048-.009a101.871 101.871 0 0 1 2.032-3.596c1.984.752 3.74 2.491 5.452 4.2 1.528 1.527 3.428 3.42 4.608 3.42 4.22 0 19.812 3.764 25.184 15.428-.94.928-1.951 1.96-3.048 3.1zm11.972-7.892c-.324-.052-.644-.112-.976-.112-.892 0-1.756.248-2.616.62-.088-.112-.188-.224-.244-.36-.1-.248-.156-.5-.156-.76 0-7.084-7.52-14.539-14.952-18.252-5.672-2.828-7.812-7.5-9.536-11.252-.96-2.104-1.792-3.916-3.032-5.152-.06-.06-.084-.136-.132-.2.952-1.076 1.84-2.052 2.612-2.86.116.08.244.128.344.228 1.752 1.752 2.768 3.972 3.844 6.316 1.608 3.508 3.276 7.136 7.684 9.336 6.22 3.104 12.785 8.74 15.667 15.217.869-4.257 1.513-11.148 1.513-21.433 0-2.332 1.024-5.4 2.104-8.648.939-2.804 1.911-5.704 1.911-7.384 0-.252.06-.484.144-.704.797.492 1.533 1.024 2.133 1.62.464.464.928 1.016 1.408 1.6-.389 1.856-1.064 3.94-1.797 6.132-.932 2.804-1.907 5.704-1.907 7.38.008 15.388-1.36 24.96-4.016 28.668zm7.228 5.056c-.916-1.039-1.836-2.008-2.784-2.812.24-.336.552-.616.972-.757 5.813-1.928 7.264-5.959 8.805-10.228 1.279-3.552 2.636-7.196 6.436-9.376.584 1.236 1.172 2.444 1.76 3.664-2.344 1.5-3.359 4.072-4.439 7.072-1.586 4.394-3.586 9.797-10.75 12.437zm18.544 3.448c-2.009 3.004-4.084 6.108-6.22 8.252-1.217-.575-2.344-1.319-3.32-2.092.092-.244.244-.472.436-.668 1.868-1.864 3.853-4.836 5.772-7.716 2.024-3.032 4.12-6.172 6.265-8.32.079-.076.176-.107.256-.172.752 1.396 1.344 2.68 1.783 3.884-1.615 1.849-3.317 4.352-4.972 6.832z"></path></g><!----></svg>