<svg data-v-d3f97b9e="" xmlns="http://www.w3.org/2000/svg" viewBox="0 0 466 177"><!----><!----><!----><g data-v-d3f97b9e="" id="e83e0712-a32b-48cd-9be7-411b802a2247" fill="#000000" transform="matrix(5.96421480178833,0,0,5.96421480178833,191.1514892578125,34.0449333190918)"><path d="M4.30 14.11L4.30 14.11Q3.29 14.11 2.51 13.71L2.51 13.71L2.51 13.71Q1.74 13.31 1.31 12.58L1.31 12.58L1.31 12.58Q0.88 11.84 0.88 10.89L0.88 10.89L0.88 7.31L0.88 7.31Q0.88 6.34 1.31 5.61L1.31 5.61L1.31 5.61Q1.74 4.89 2.51 4.49L2.51 4.49L2.51 4.49Q3.29 4.09 4.30 4.09L4.30 4.09L4.30 4.09Q5.31 4.09 6.08 4.48L6.08 4.48L6.08 4.48Q6.85 4.87 7.27 5.56L7.27 5.56L7.27 5.56Q7.70 6.26 7.70 7.13L7.70 7.13L7.70 7.21L7.70 7.21Q7.70 7.31 7.64 7.36L7.64 7.36L7.64 7.36Q7.59 7.42 7.49 7.42L7.49 7.42L6.57 7.42L6.57 7.42Q6.47 7.42 6.41 7.38L6.41 7.38L6.41 7.38Q6.36 7.34 6.36 7.28L6.36 7.28L6.36 7.15L6.36 7.15Q6.36 6.31 5.79 5.79L5.79 5.79L5.79 5.79Q5.22 5.26 4.30 5.26L4.30 5.26L4.30 5.26Q3.36 5.26 2.79 5.81L2.79 5.81L2.79 5.81Q2.23 6.36 2.23 7.27L2.23 7.27L2.23 10.93L2.23 10.93Q2.23 11.84 2.81 12.39L2.81 12.39L2.81 12.39Q3.40 12.94 4.35 12.94L4.35 12.94L4.35 12.94Q5.28 12.94 5.82 12.45L5.82 12.45L5.82 12.45Q6.36 11.97 6.36 11.13L6.36 11.13L6.36 10.07L6.36 10.07Q6.36 10.00 6.29 10.00L6.29 10.00L4.48 10.00L4.48 10.00Q4.38 10.00 4.33 9.94L4.33 9.94L4.33 9.94Q4.27 9.88 4.27 9.79L4.27 9.79L4.27 9.06L4.27 9.06Q4.27 8.96 4.33 8.90L4.33 8.90L4.33 8.90Q4.38 8.85 4.48 8.85L4.48 8.85L7.49 8.85L7.49 8.85Q7.59 8.85 7.64 8.90L7.64 8.90L7.64 8.90Q7.70 8.96 7.70 9.06L7.70 9.06L7.70 10.77L7.70 10.77Q7.70 12.38 6.78 13.24L6.78 13.24L6.78 13.24Q5.87 14.11 4.30 14.11L4.30 14.11ZM10.25 5.81L10.25 5.81Q9.84 5.81 9.58 5.56L9.58 5.56L9.58 5.56Q9.32 5.32 9.32 4.93L9.32 4.93L9.32 4.93Q9.32 4.54 9.58 4.29L9.58 4.29L9.58 4.29Q9.84 4.05 10.25 4.05L10.25 4.05L10.25 4.05Q10.65 4.05 10.91 4.29L10.91 4.29L10.91 4.29Q11.16 4.54 11.16 4.93L11.16 4.93L11.16 4.93Q11.16 5.32 10.91 5.56L10.91 5.56L10.91 5.56Q10.65 5.81 10.25 5.81L10.25 5.81ZM9.79 14L9.79 14Q9.69 14 9.63 13.94L9.63 13.94L9.63 13.94Q9.58 13.89 9.58 13.79L9.58 13.79L9.58 7.08L9.58 7.08Q9.58 6.99 9.63 6.93L9.63 6.93L9.63 6.93Q9.69 6.87 9.79 6.87L9.79 6.87L10.71 6.87L10.71 6.87Q10.81 6.87 10.86 6.93L10.86 6.93L10.86 6.93Q10.92 6.99 10.92 7.08L10.92 7.08L10.92 13.79L10.92 13.79Q10.92 13.89 10.86 13.94L10.86 13.94L10.86 13.94Q10.81 14 10.71 14L10.71 14L9.79 14ZM16.49 7.77L16.49 7.77Q16.49 7.87 16.44 7.92L16.44 7.92L16.44 7.92Q16.38 7.98 16.28 7.98L16.28 7.98L14.85 7.98L14.85 7.98Q14.78 7.98 14.78 8.05L14.78 8.05L14.78 11.70L14.78 11.70Q14.78 12.31 15.04 12.56L15.04 12.56L15.04 12.56Q15.30 12.81 15.88 12.81L15.88 12.81L16.21 12.81L16.21 12.81Q16.31 12.81 16.37 12.87L16.37 12.87L16.37 12.87Q16.42 12.92 16.42 13.02L16.42 13.02L16.42 13.75L16.42 13.75Q16.42 13.94 16.21 13.97L16.21 13.97L15.64 13.99L15.64 13.99Q14.56 13.99 14.03 13.61L14.03 13.61L14.03 13.61Q13.50 13.23 13.50 12.19L13.50 12.19L13.50 8.05L13.50 8.05Q13.50 7.98 13.43 7.98L13.43 7.98L12.66 7.98L12.66 7.98Q12.56 7.98 12.50 7.92L12.50 7.92L12.50 7.92Q12.45 7.87 12.45 7.77L12.45 7.77L12.45 7.08L12.45 7.08Q12.45 6.99 12.50 6.93L12.50 6.93L12.50 6.93Q12.56 6.87 12.66 6.87L12.66 6.87L13.43 6.87L13.43 6.87Q13.50 6.87 13.50 6.80L13.50 6.80L13.50 5.24L13.50 5.24Q13.50 5.14 13.55 5.08L13.55 5.08L13.55 5.08Q13.61 5.03 13.71 5.03L13.71 5.03L14.57 5.03L14.57 5.03Q14.67 5.03 14.73 5.08L14.73 5.08L14.73 5.08Q14.78 5.14 14.78 5.24L14.78 5.24L14.78 6.80L14.78 6.80Q14.78 6.87 14.85 6.87L14.85 6.87L16.28 6.87L16.28 6.87Q16.38 6.87 16.44 6.93L16.44 6.93L16.44 6.93Q16.49 6.99 16.49 7.08L16.49 7.08L16.49 7.77ZM20.31 14L20.31 14Q20.12 14 20.08 13.82L20.08 13.82L17.50 4.44L17.50 4.44Q17.49 4.41 17.49 4.35L17.49 4.35L17.49 4.35Q17.49 4.20 17.67 4.20L17.67 4.20L18.68 4.20L18.68 4.20Q18.86 4.20 18.90 4.38L18.90 4.38L20.72 11.27L20.72 11.27Q20.73 11.31 20.76 11.31L20.76 11.31L20.76 11.31Q20.79 11.31 20.80 11.27L20.80 11.27L22.51 4.38L22.51 4.38Q22.55 4.20 22.74 4.20L22.74 4.20L23.73 4.20L23.73 4.20Q23.91 4.20 23.95 4.38L23.95 4.38L25.76 11.27L25.76 11.27Q25.77 11.31 25.80 11.31L25.80 11.31L25.80 11.31Q25.83 11.31 25.84 11.27L25.84 11.27L27.66 4.38L27.66 4.38Q27.71 4.20 27.89 4.20L27.89 4.20L28.83 4.20L28.83 4.20Q28.94 4.20 28.99 4.26L28.99 4.26L28.99 4.26Q29.04 4.33 29.01 4.44L29.01 4.44L26.50 13.82L26.50 13.82Q26.46 14 26.28 14L26.28 14L25.31 14L25.31 14Q25.13 14 25.09 13.82L25.09 13.82L23.28 6.68L23.28 6.68Q23.27 6.64 23.24 6.64L23.24 6.64L23.24 6.64Q23.21 6.64 23.20 6.68L23.20 6.68L21.45 13.82L21.45 13.82Q21.41 14 21.22 14L21.22 14L20.31 14ZM31.09 5.81L31.09 5.81Q30.69 5.81 30.43 5.56L30.43 5.56L30.43 5.56Q30.17 5.32 30.17 4.93L30.17 4.93L30.17 4.93Q30.17 4.54 30.43 4.29L30.43 4.29L30.43 4.29Q30.69 4.05 31.09 4.05L31.09 4.05L31.09 4.05Q31.50 4.05 31.75 4.29L31.75 4.29L31.75 4.29Q32.00 4.54 32.00 4.93L32.00 4.93L32.00 4.93Q32.00 5.32 31.75 5.56L31.75 5.56L31.75 5.56Q31.50 5.81 31.09 5.81L31.09 5.81ZM30.63 14L30.63 14Q30.53 14 30.48 13.94L30.48 13.94L30.48 13.94Q30.42 13.89 30.42 13.79L30.42 13.79L30.42 7.08L30.42 7.08Q30.42 6.99 30.48 6.93L30.48 6.93L30.48 6.93Q30.53 6.87 30.63 6.87L30.63 6.87L31.56 6.87L31.56 6.87Q31.65 6.87 31.71 6.93L31.71 6.93L31.71 6.93Q31.77 6.99 31.77 7.08L31.77 7.08L31.77 13.79L31.77 13.79Q31.77 13.89 31.71 13.94L31.71 13.94L31.71 13.94Q31.65 14 31.56 14L31.56 14L30.63 14ZM33.47 14L33.47 14Q33.38 14 33.32 13.94L33.32 13.94L33.32 13.94Q33.26 13.89 33.26 13.79L33.26 13.79L33.26 12.92L33.26 12.92Q33.26 12.78 33.36 12.67L33.36 12.67L37.02 8.19L37.02 8.19Q37.04 8.16 37.03 8.13L37.03 8.13L37.03 8.13Q37.02 8.11 36.97 8.11L36.97 8.11L33.54 8.11L33.54 8.11Q33.45 8.11 33.39 8.05L33.39 8.05L33.39 8.05Q33.33 7.99 33.33 7.90L33.33 7.90L33.33 7.08L33.33 7.08Q33.33 6.99 33.39 6.93L33.39 6.93L33.39 6.93Q33.45 6.87 33.54 6.87L33.54 6.87L38.46 6.87L38.46 6.87Q38.56 6.87 38.61 6.93L38.61 6.93L38.61 6.93Q38.67 6.99 38.67 7.08L38.67 7.08L38.67 7.95L38.67 7.95Q38.67 8.12 38.57 8.22L38.57 8.22L34.86 12.70L34.86 12.70Q34.83 12.73 34.85 12.75L34.85 12.75L34.85 12.75Q34.86 12.78 34.90 12.78L34.90 12.78L38.47 12.78L38.47 12.78Q38.57 12.78 38.63 12.84L38.63 12.84L38.63 12.84Q38.68 12.89 38.68 12.99L38.68 12.99L38.68 13.79L38.68 13.79Q38.68 13.89 38.63 13.94L38.63 13.94L38.63 13.94Q38.57 14 38.47 14L38.47 14L33.47 14ZM43.13 12.96L43.13 12.96Q44.27 12.95 44.76 12.08L44.76 12.08L44.76 12.08Q44.83 11.96 44.91 11.96L44.91 11.96L44.91 11.96Q44.98 11.96 45.04 12.00L45.04 12.00L45.61 12.35L45.61 12.35Q45.72 12.42 45.72 12.53L45.72 12.53L45.70 12.64L45.70 12.64Q45.32 13.33 44.63 13.72L44.63 13.72L44.63 13.72Q43.93 14.11 43.01 14.11L43.01 14.11L43.01 14.11Q42.01 14.11 41.33 13.67L41.33 13.67L41.33 13.67Q40.64 13.23 40.29 12.40L40.29 12.40L40.29 12.40Q39.94 11.55 39.94 10.40L39.94 10.40L39.94 10.40Q39.94 9.38 40.10 8.85L40.10 8.85L40.10 8.85Q40.35 7.88 41.10 7.32L41.10 7.32L41.10 7.32Q41.86 6.76 42.94 6.76L42.94 6.76L42.94 6.76Q44.27 6.76 44.97 7.46L44.97 7.46L44.97 7.46Q45.67 8.15 45.88 9.46L45.88 9.46L45.88 9.46Q45.95 9.98 45.98 10.72L45.98 10.72L45.98 10.72Q45.98 10.93 45.77 10.93L45.77 10.93L41.34 10.93L41.34 10.93Q41.27 10.93 41.27 11.00L41.27 11.00L41.27 11.00Q41.30 11.54 41.37 11.76L41.37 11.76L41.37 11.76Q41.52 12.32 41.99 12.64L41.99 12.64L41.99 12.64Q42.45 12.96 43.13 12.96L43.13 12.96ZM42.94 7.92L42.94 7.92Q42.32 7.92 41.94 8.22L41.94 8.22L41.94 8.22Q41.55 8.51 41.41 9.03L41.41 9.03L41.41 9.03Q41.31 9.34 41.29 9.81L41.29 9.81L41.29 9.81Q41.29 9.88 41.36 9.88L41.36 9.88L44.53 9.88L44.53 9.88Q44.60 9.88 44.60 9.81L44.60 9.81L44.60 9.81Q44.58 9.35 44.52 9.13L44.52 9.13L44.52 9.13Q44.38 8.58 43.97 8.25L43.97 8.25L43.97 8.25Q43.55 7.92 42.94 7.92L42.94 7.92Z"></path></g><linearGradient data-v-d3f97b9e="" gradientTransform="rotate(25)" id="5a9897b1-545f-476e-a5a0-c860accbdc90" x1="0%" y1="0%" x2="100%" y2="0%"><stop data-v-d3f97b9e="" offset="0%" style="stop-color: rgb(66, 47, 117); stop-opacity: 1;"></stop><stop data-v-d3f97b9e="" offset="100%" style="stop-color: rgb(192, 179, 236); stop-opacity: 1;"></stop></linearGradient><g data-v-d3f97b9e="" id="cf579979-fafb-4c88-9303-060e5c97b003" transform="matrix(1.399999976158142,0,0,1.399999976158142,-0.599993109703064,-0.5999984741210938)" stroke="none" fill="url(#5a9897b1-545f-476e-a5a0-c860accbdc90)"><path d="M111 2.892v106.223c0 .472-.021 1.019-.371 1.417-.391.445-1.046.469-1.58.469h-71.01c-.823 0-1.039-.707-1.039-1.532V39.084l-17-18.87V127h107V18.518L111 2.892z"></path><path d="M88 20H20.066l18.551 18H88z"></path><path d="M91 18.518v20.005l-.052 52.224L108 106.173V1H1v108.468l16 15.625V18.518c0-.825.613-1.518 1.438-1.518h71.351c.824 0 1.211.693 1.211 1.518z"></path><path d="M90.793 91C90.528 91.242 39 91 39 91v17h66.998L90.793 91z"></path></g><!----></svg>