<svg data-v-29081953="" xmlns="http://www.w3.org/2000/svg" viewBox="0 0 300 300"><!----><defs data-v-29081953=""><!----></defs><rect data-v-29081953="" fill="transparent" x="0" y="0" width="300px" height="300px" class="logo-background-square"></rect><!----><defs data-v-29081953=""><linearGradient data-v-29081953="" gradientTransform="rotate(25)" id="635cb80b-1912-4081-be45-4d8184e8dac8" x1="0%" y1="0%" x2="100%" y2="0%"><stop data-v-29081953="" offset="0%" stop-color="#422F75" stop-opacity="1"></stop><stop data-v-29081953="" offset="100%" stop-color="#C0B3EC" stop-opacity="1"></stop></linearGradient></defs><g data-v-29081953="" id="0493dd1e-c664-489b-ad53-04fb9e4a19ac" fill="url(#635cb80b-1912-4081-be45-4d8184e8dac8)" stroke="none" transform="matrix(1.7460317611694336,0,0,1.7460317611694336,38.25397491455078,38.25396825396825)"><path d="M111 2.892v106.223c0 .472-.021 1.019-.371 1.417-.391.445-1.046.469-1.58.469h-71.01c-.823 0-1.039-.707-1.039-1.532V39.084l-17-18.87V127h107V18.518L111 2.892z"></path><path d="M88 20H20.066l18.551 18H88z"></path><path d="M91 18.518v20.005l-.052 52.224L108 106.173V1H1v108.468l16 15.625V18.518c0-.825.613-1.518 1.438-1.518h71.351c.824 0 1.211.693 1.211 1.518z"></path><path d="M90.793 91C90.528 91.242 39 91 39 91v17h66.998L90.793 91z"></path></g><!----></svg>