<svg data-v-29081953="" xmlns="http://www.w3.org/2000/svg" viewBox="0 0 300 300"><!----><defs data-v-29081953=""><!----></defs><rect data-v-29081953="" fill="transparent" x="0" y="0" width="300px" height="300px" class="logo-background-square"></rect><defs data-v-29081953=""><!----></defs><g data-v-29081953="" id="37a30cc0-d333-40ba-b412-f946de53b168" fill="#000000" transform="matrix(2.671795129776001,0,0,2.671795129776001,100.28008780985886,130.26879253769687)"><path d="M10.36 7.63L6.02 7.63L6.02 8.75L9.06 8.75C8.87 9.62 8.48 10.31 7.89 10.84C7.30 11.36 6.53 11.62 5.60 11.62C4.49 11.62 3.57 11.25 2.84 10.51C2.11 9.78 1.75 8.84 1.75 7.70C1.75 6.56 2.11 5.62 2.84 4.89C3.57 4.15 4.49 3.78 5.60 3.78C6.33 3.78 6.98 3.94 7.56 4.25C8.14 4.56 8.59 4.98 8.90 5.52L9.74 4.75C9.32 4.07 8.75 3.56 8.04 3.20C7.32 2.84 6.51 2.66 5.60 2.66C4.16 2.66 2.96 3.14 2.00 4.09C1.04 5.04 0.56 6.24 0.56 7.70C0.56 9.16 1.04 10.36 2.00 11.31C2.96 12.26 4.16 12.74 5.60 12.74C7.06 12.74 8.21 12.26 9.07 11.29C9.93 10.32 10.36 9.10 10.36 7.63ZM12.04 3.50C12.04 3.71 12.12 3.88 12.27 4.04C12.43 4.19 12.60 4.27 12.81 4.27C13.02 4.27 13.20 4.19 13.35 4.04C13.50 3.88 13.58 3.71 13.58 3.50C13.58 3.29 13.50 3.12 13.35 2.96C13.20 2.81 13.02 2.73 12.81 2.73C12.60 2.73 12.43 2.81 12.27 2.96C12.12 3.12 12.04 3.29 12.04 3.50ZM12.25 6.16L12.25 12.60L13.37 12.60L13.37 6.16ZM15.75 3.92L15.75 6.16L14.70 6.16L14.70 7.21L15.75 7.21L15.75 12.60L16.87 12.60L16.87 7.21L17.92 7.21L17.92 6.16L16.87 6.16L16.87 3.92ZM26.46 2.80L26.46 10.09L19.04 2.31L19.04 12.60L20.23 12.60L20.23 5.31L27.65 13.09L27.65 2.80ZM30.25 7.67C30.87 7.22 31.51 7.00 32.17 7.00C32.55 7.00 32.87 7.09 33.13 7.26C33.40 7.43 33.53 7.67 33.53 7.98L33.53 8.95C33.11 8.71 32.60 8.60 32.00 8.60C31.24 8.60 30.57 8.78 29.99 9.13C29.41 9.49 29.12 10.00 29.12 10.64C29.12 11.33 29.35 11.85 29.81 12.21C30.28 12.56 30.78 12.74 31.33 12.74C31.83 12.74 32.27 12.65 32.66 12.46C33.04 12.27 33.33 12.01 33.53 11.68L33.53 12.60L34.65 12.60L34.65 7.98C34.65 7.36 34.42 6.88 33.97 6.54C33.52 6.19 32.92 6.02 32.17 6.02C31.26 6.02 30.44 6.29 29.71 6.82ZM30.25 10.64C30.25 9.85 30.86 9.45 32.06 9.45C32.59 9.45 33.08 9.53 33.53 9.70L33.53 10.08C33.53 11.19 32.94 11.75 31.75 11.75C30.75 11.75 30.25 11.38 30.25 10.64ZM37.66 8.68C37.66 8.20 37.79 7.82 38.05 7.52C38.31 7.22 38.68 7.07 39.16 7.07C39.60 7.07 39.91 7.20 40.10 7.46C40.29 7.72 40.39 8.13 40.39 8.68L40.39 12.60L41.51 12.60L41.51 8.68C41.51 8.20 41.64 7.82 41.90 7.52C42.16 7.22 42.53 7.07 43.01 7.07C43.45 7.07 43.76 7.20 43.95 7.46C44.14 7.72 44.24 8.13 44.24 8.68L44.24 12.60L45.36 12.60L45.36 8.54C45.36 7.71 45.18 7.08 44.83 6.66C44.47 6.23 43.96 6.02 43.29 6.02C42.88 6.02 42.49 6.12 42.14 6.33C41.79 6.53 41.50 6.81 41.29 7.17C40.98 6.40 40.36 6.02 39.44 6.02C38.69 6.02 38.10 6.33 37.66 6.96L37.66 6.16L36.54 6.16L36.54 12.60L37.66 12.60ZM51.91 8.71L48.08 8.71C48.13 8.19 48.35 7.78 48.73 7.47C49.11 7.16 49.56 7.00 50.09 7.00C50.63 7.00 51.06 7.15 51.37 7.46C51.67 7.77 51.86 8.19 51.91 8.71ZM48.05 9.66L53.12 9.66C53.13 9.59 53.13 9.47 53.13 9.32C53.13 8.32 52.85 7.51 52.30 6.92C51.74 6.32 51.01 6.02 50.09 6.02C49.15 6.02 48.38 6.33 47.79 6.96C47.20 7.59 46.90 8.40 46.90 9.38C46.90 10.35 47.19 11.15 47.77 11.79C48.35 12.42 49.07 12.74 49.95 12.74C50.73 12.74 51.34 12.60 51.80 12.33C52.26 12.06 52.66 11.65 53.02 11.10L52.11 10.53C51.63 11.30 50.96 11.69 50.09 11.69C49.50 11.69 49.03 11.51 48.66 11.16C48.30 10.80 48.09 10.30 48.05 9.66ZM54.60 1.68L54.60 12.60L55.72 12.60L55.72 9.34L58.38 12.60L59.78 12.60L56.70 8.82L59.50 6.16L58.10 6.16L55.72 8.43L55.72 1.68Z"></path></g><defs data-v-29081953=""><linearGradient data-v-29081953="" gradientTransform="rotate(25)" id="a05e8741-fd68-453c-9958-756626065c63" x1="0%" y1="0%" x2="100%" y2="0%"><stop data-v-29081953="" offset="0%" stop-color="#920DE9" stop-opacity="1"></stop><stop data-v-29081953="" offset="100%" stop-color="#1536F1" stop-opacity="1"></stop></linearGradient></defs><g data-v-29081953="" id="3cb2ccf7-38a5-4f30-9554-efd92b9b583e" stroke="none" fill="url(#a05e8741-fd68-453c-9958-756626065c63)" transform="matrix(0.6097036600112915,0,0,0.6097036600112915,33.90296335656109,117.99055762194573)"><path d="M67 15c-10 0-20 9.689-20 22v.852C43.578 32.446 35.364 29 29 29H10v17c0 11 7 16 16.552 16h11.029C45.6 62 46 69 46 69v21h8V61.424C54.219 58.461 55.323 54 60 54h8c10.978 0 22-7 22-19.835V15H67z"></path></g><!----></svg>