<svg data-v-29081953="" xmlns="http://www.w3.org/2000/svg" viewBox="0 0 300 300"><!----><defs data-v-29081953=""><!----></defs><rect data-v-29081953="" fill="transparent" x="0" y="0" width="300px" height="300px" class="logo-background-square"></rect><!----><defs data-v-29081953=""><linearGradient data-v-29081953="" gradientTransform="rotate(25)" id="8c369a85-e8ca-4f3e-a198-97d1d3b9b893" x1="0%" y1="0%" x2="100%" y2="0%"><stop data-v-29081953="" offset="0%" stop-color="#920DE9" stop-opacity="1"></stop><stop data-v-29081953="" offset="100%" stop-color="#1536F1" stop-opacity="1"></stop></linearGradient></defs><g data-v-29081953="" id="7c29a11a-013d-45d2-a45b-6c60e30113a6" fill="url(#8c369a85-e8ca-4f3e-a198-97d1d3b9b893)" stroke="none" transform="matrix(2.75,0,0,2.75,12.5,5.625)"><path d="M67 15c-10 0-20 9.689-20 22v.852C43.578 32.446 35.364 29 29 29H10v17c0 11 7 16 16.552 16h11.029C45.6 62 46 69 46 69v21h8V61.424C54.219 58.461 55.323 54 60 54h8c10.978 0 22-7 22-19.835V15H67z"></path></g><!----></svg>